<svg width="24" height="24" viewBox="0 0 24 24" fill="none" xmlns="http://www.w3.org/2000/svg">
<path d="M14.9951 20.9932V12.9958C14.9951 12.7306 14.8898 12.4764 14.7023 12.2889C14.5148 12.1014 14.2606 11.9961 13.9954 11.9961H9.99675C9.73162 11.9961 9.47734 12.1014 9.28987 12.2889C9.10239 12.4764 8.99707 12.7306 8.99707 12.9958V20.9932" fill="#2BB3A3"/>
<path d="M14.9951 20.9932V12.9958C14.9951 12.7306 14.8898 12.4764 14.7023 12.2889C14.5148 12.1014 14.2606 11.9961 13.9954 11.9961H9.99675C9.73162 11.9961 9.47734 12.1014 9.28987 12.2889C9.10239 12.4764 8.99707 12.7306 8.99707 12.9958V20.9932" stroke="#2BB3A3" stroke-width="1.99935" stroke-linecap="round" stroke-linejoin="round"/>
<path d="M2.99902 9.99666C2.99895 9.70582 3.06234 9.41847 3.18475 9.15465C3.30717 8.89083 3.48566 8.65689 3.70779 8.46916L10.7055 2.47111C11.0664 2.16611 11.5236 1.99878 11.9961 1.99878C12.4686 1.99878 12.9258 2.16611 13.2867 2.47111L20.2844 8.46916C20.5065 8.65689 20.685 8.89083 20.8075 9.15465C20.9299 9.41847 20.9932 9.70582 20.9932 9.99666V18.9937C20.9932 19.524 20.7825 20.0325 20.4076 20.4075C20.0326 20.7824 19.5241 20.9931 18.9938 20.9931H4.99837C4.46811 20.9931 3.95957 20.7824 3.58462 20.4075C3.20967 20.0325 2.99902 19.524 2.99902 18.9937V9.99666Z" fill="#2BB3A3" stroke="#2BB3A3" stroke-width="1.99935" stroke-linecap="round" stroke-linejoin="round"/>
</svg>
